<svg xmlns="http://www.w3.org/2000/svg" width="30" height="30" fill="none"><path id="button2" fill="#fff" fill-rule="evenodd" d="M25 15c0 .34-.132.668-.366.909a1.233 1.233 0 0 1-.884.376H9.27l5.366 5.518a1.29 1.29 0 0 1 .367.91 1.318 1.318 0 0 1-.367.91 1.222 1.222 0 0 1-1.77 0L5.367 15.91A1.288 1.288 0 0 1 5 15a1.317 1.317 0 0 1 .367-.91l7.5-7.713c.234-.241.552-.377.884-.377.332 0 .65.136.885.377s.367.569.367.91c0 .341-.132.669-.367.91L9.27 13.715H23.75c.332 0 .65.135.884.376.234.241.366.568.366.909Z" clip-rule="evenodd"/></svg>