<svg xmlns="http://www.w3.org/2000/svg" width="13" height="23" fill="none"><path id="facebook" fill-rule="evenodd" d="M10.21 4.217h2.364V.64a7.099 7.099 0 0 0-1.153-.115C10.729.468 10.037.468 9.345.468c-1.096 0-2.134.289-2.999.923-1.038.75-1.615 1.788-1.845 2.999-.058.519-.116 1.038-.116 1.557v2.71H.983v4.037h3.402V22.73h4.152V12.694h3.403c.173-1.326.346-2.653.52-4.037H8.536s0-1.96.058-2.825c0-1.211.692-1.558 1.615-1.615Z" clip-rule="evenodd"/><defs><linearGradient id="a" x1="-.289" x2="13.442" y1="2.07" y2="17.108" gradientUnits="userSpaceOnUse"><stop stop-color="#0D0E19"/><stop offset=".602" stop-color="#20222A"/><stop offset=".84" stop-color="#3E4151"/><stop offset="1" stop-color="#4E5266"/></linearGradient></defs></svg>