<svg xmlns="http://www.w3.org/2000/svg" width="19" height="18" fill="none"><path id="google" d="M9.68 7.215V10.675h4.67c0 .346-.403 1.73-1.73 2.653-.75.519-1.614.75-2.537.807-.634.058-1.269 0-1.903-.23a5.165 5.165 0 0 1-3.576-4.557c-.057-.519 0-1.038.116-1.557.576-2.537 2.998-4.44 5.767-4.037 1.21.173 1.903.692 2.595 1.211l2.537-2.537c-.23-.173-.692-.634-1.557-1.153C12.793.524 11.41.178 9.91.12h-.865c-.462 0-.98.115-1.442.23-1.903.462-3.46 1.5-4.671 3C1.778 4.792 1.144 6.465.97 8.368c-.058.807 0 1.557.173 2.364.52 2.192 1.615 3.922 3.403 5.248 1.384 1.038 2.94 1.558 4.67 1.673.981.058 1.904-.058 2.884-.288 1.73-.462 3.23-1.385 4.326-2.826 1.557-2.134 1.96-4.787 1.499-7.382-2.768.058-5.479.058-8.247.058Z"/><defs><linearGradient id="a" x1="-.508" x2="36.694" y1="8.997" y2="8.997" gradientUnits="userSpaceOnUse"><stop stop-color="#0D0E19"/><stop offset=".602" stop-color="#20222A"/><stop offset=".84" stop-color="#3E4151"/><stop offset="1" stop-color="#4E5266"/></linearGradient></defs></svg>