<svg xmlns="http://www.w3.org/2000/svg" width="36" height="36" fill="none"><path id="icon4" d="M32.953 10.328c.255.689-.528 2.297-2.35 4.825a63.84 63.84 0 0 0-.984 1.378c-.838 1.073-1.312 1.78-1.421 2.126-.183.46-.11.9.218 1.32.183.23.602.69 1.258 1.38h.054v.057c1.494 1.417 2.496 2.623 3.006 3.619l.11.23.109.43v.546l-.383.43-.929.202-3.99.115c-.255.038-.556 0-.902-.115s-.61-.23-.792-.345l-.328-.23c-.328-.23-.693-.574-1.093-1.034A44.7 44.7 0 0 1 23.47 24a5.602 5.602 0 0 0-.957-.948c-.328-.249-.62-.335-.874-.259-.037 0-.082.02-.137.058a2.288 2.288 0 0 0-.273.258 1.86 1.86 0 0 0-.328.489c-.091.191-.173.469-.246.832a6.66 6.66 0 0 0-.11 1.293c0 .153-.018.297-.054.43-.037.135-.073.24-.11.317l-.054.057c-.219.23-.51.345-.875.345h-1.749a6.05 6.05 0 0 1-2.323-.23c-.783-.23-1.466-.527-2.05-.89a19.93 19.93 0 0 1-1.585-1.092 9.73 9.73 0 0 1-1.093-.947l-.382-.403c-.11-.076-.255-.23-.438-.46-.182-.229-.555-.727-1.12-1.493a37.317 37.317 0 0 1-1.667-2.47c-.547-.88-1.185-2.039-1.913-3.475a57.292 57.292 0 0 1-2.023-4.452A1.38 1.38 0 0 1 3 10.5c0-.114.018-.21.055-.286l.054-.058c.146-.23.438-.344.875-.344h4.318a.7.7 0 0 1 .328.086l.273.143.055.058c.182.115.31.287.382.517.219.536.465 1.1.738 1.694.274.594.483 1.044.629 1.35l.218.46c.329.65.63 1.216.902 1.694.274.479.52.852.738 1.12.219.268.438.479.656.632.219.153.401.23.547.23.146 0 .291-.02.437-.058l.055-.086.191-.373.219-.747.136-1.32v-2.069a10.686 10.686 0 0 0-.164-1.177c-.073-.364-.145-.623-.218-.776l-.055-.172c-.255-.383-.71-.632-1.366-.747-.11 0-.073-.134.109-.402.182-.191.383-.345.601-.46.547-.306 1.786-.44 3.717-.402.838 0 1.549.077 2.132.23.182.038.346.105.491.201.146.096.256.23.328.402.073.173.128.345.165.517.036.173.054.421.054.747v.89c-.036.307-.055.69-.055 1.15v1.378c0 .115-.009.344-.027.69a16.27 16.27 0 0 0-.027.803c0 .192.018.412.055.66.036.25.1.46.19.633.092.172.21.297.356.373a.94.94 0 0 0 .246.086c.091.02.228-.038.41-.172.182-.134.383-.326.601-.575.219-.248.492-.622.82-1.12.328-.497.674-1.072 1.039-1.723a31.365 31.365 0 0 0 1.694-3.734c.037-.076.082-.162.137-.258a.493.493 0 0 1 .191-.201h.055l.054-.058.219-.057h.328l4.482-.057c.4-.039.738-.02 1.011.057.273.077.428.172.465.287l.109.173Z"/></svg>